<?xml version="1.0" encoding="UTF-8"?>
<svg xmlns="http://www.w3.org/2000/svg" xmlns:xlink="http://www.w3.org/1999/xlink" width="287" height="75" viewBox="0 0 286.81 74.8" version="1.2">
<title>Along With You</title>
<style>
  /* The deep brand blue is 3.1:1 against the dark-mode header (#151F23). A
     logotype is exempt from WCAG 1.4.3, but the wordmark is most of the mark,
     so dark mode lifts the blue to a tint of the same hue (6.7:1) and leaves
     the teal and green alone - both already clear 5:1.

     Media queries inside an SVG are evaluated against the OS colour scheme
     even when the file is loaded as an image, which is how one asset serves
     both themes. Every path also carries its light-mode colour inline, so a
     renderer that ignores this block still draws the mark correctly.

     Note for editors: SVG is XML, so no literal angle brackets in here. */
  @media (prefers-color-scheme: dark) {
    .awy-blue { fill: #4FA8D8; }
  }
</style>
<defs>
<clipPath id="clip1">
  <path d="M 0.289062 0 L 286.332031 0 L 286.332031 74.601562 L 0.289062 74.601562 Z M 0.289062 0 "/>
</clipPath>
</defs>
<g id="surface1">
<path style=" stroke:none;fill-rule:nonzero;fill:#99CC66;fill-opacity:1;" class="awy-green" d="M 267.636719 44.640625 L 225.074219 44.640625 C 225.074219 44.640625 223.835938 49.054688 219.410156 48.800781 C 215.503906 48.570312 215.703125 44.640625 215.703125 44.640625 L 154.605469 44.640625 C 154.605469 44.640625 152.90625 48.292969 147.449219 49.050781 C 146.199219 49.226562 143.679688 49.234375 142.820312 49.195312 C 140.507812 49.085938 138.546875 48.472656 137.085938 47.421875 C 135.9375 46.601562 135.375 45.589844 135.171875 44.699219 C 134.710938 44.699219 37.585938 44.640625 37.585938 44.640625 C 33.539062 44.640625 30.246094 41.347656 30.246094 37.300781 C 30.246094 33.253906 33.539062 29.960938 37.585938 29.960938 C 41.632812 29.960938 44.925781 34.066406 44.925781 38.113281 L 52.546875 38.113281 C 52.546875 29.863281 45.835938 22.339844 37.585938 22.339844 C 29.335938 22.339844 22.625 29.050781 22.625 37.300781 C 22.625 45.550781 29.335938 52.261719 37.585938 52.261719 L 267.636719 52.261719 L 267.636719 44.640625 "/>
<path style=" stroke:none;fill-rule:nonzero;fill:#329A9A;fill-opacity:1;" class="awy-teal" d="M 276.984375 55.8125 L 32.710938 55.8125 C 27.378906 55.8125 19.078125 47.507812 19.078125 37.300781 C 19.078125 27.09375 27.378906 18.792969 37.585938 18.792969 C 47.792969 18.792969 56.097656 27.90625 56.097656 38.113281 L 63.71875 38.113281 C 63.71875 23.707031 51.996094 11.171875 37.585938 11.171875 C 23.179688 11.171875 11.457031 22.894531 11.457031 37.300781 C 11.457031 51.710938 23.179688 63.429688 32.710938 63.429688 L 276.984375 63.429688 L 276.984375 55.8125 "/>
<g clip-path="url(#clip1)" clip-rule="nonzero">
<path style=" stroke:none;fill-rule:nonzero;fill:#006CA4;fill-opacity:1;" class="awy-blue" d="M 286.332031 66.980469 L 37.585938 66.980469 C 21.222656 66.980469 7.910156 53.664062 7.910156 37.300781 C 7.910156 20.9375 21.222656 7.621094 37.585938 7.621094 C 53.953125 7.621094 67.265625 21.75 67.265625 38.113281 L 74.886719 38.113281 C 74.886719 17.546875 58.152344 0 37.585938 0 C 17.019531 0 0.289062 16.734375 0.289062 37.300781 C 0.289062 57.867188 17.019531 74.601562 37.585938 74.601562 L 286.332031 74.601562 L 286.332031 66.980469 "/>
</g>
<path style=" stroke:none;fill-rule:nonzero;fill:#006CA4;fill-opacity:1;" class="awy-blue" d="M 85.308594 30.191406 C 83.800781 31.152344 81.535156 31.734375 81.535156 34.238281 C 81.535156 35.644531 82.289062 36.332031 83.113281 36.332031 C 84.074219 36.261719 85.308594 35.300781 85.308594 34.683594 Z M 85.515625 36.125 C 84.761719 36.949219 83.867188 37.53125 82.53125 37.976562 C 81.742188 38.21875 81.019531 38.21875 80.335938 38.21875 C 79.066406 38.21875 77.96875 37.1875 77.96875 35.269531 C 77.96875 33.691406 78.65625 32.148438 81.125 31.050781 C 83.25 30.019531 84.554688 29.472656 85.308594 28.921875 L 85.308594 27.140625 C 85.238281 26.453125 85.171875 25.632812 84.761719 25.21875 C 84.417969 24.84375 83.800781 24.703125 83.042969 24.703125 C 82.429688 24.703125 81.605469 24.910156 81.054688 25.320312 C 80.574219 25.664062 80.917969 26.179688 80.917969 27.003906 C 80.917969 28.238281 80.300781 28.992188 78.859375 28.992188 C 78.242188 28.992188 77.695312 28.582031 77.695312 27.824219 C 77.695312 26.867188 78.242188 25.769531 79.273438 25.011719 C 80.710938 23.917969 82.566406 23.09375 84.828125 23.09375 C 86.75 23.09375 87.367188 23.503906 87.984375 24.054688 C 88.738281 24.738281 88.804688 25.699219 88.804688 26.625 L 88.875 32.042969 L 88.875 33.691406 C 88.875 35.542969 89.148438 36.089844 89.765625 36.089844 C 90.246094 36.089844 90.726562 35.816406 90.863281 35.542969 C 91 35.335938 91.070312 35.335938 91.207031 35.40625 L 91.617188 35.679688 C 91.757812 35.75 91.824219 35.886719 91.6875 36.230469 C 91.34375 36.84375 90.519531 38.21875 88.53125 38.21875 C 87.230469 38.21875 86.132812 37.601562 85.652344 36.125 L 85.515625 36.125 "/>
<path style=" stroke:none;fill-rule:nonzero;fill:#006CA4;fill-opacity:1;" class="awy-blue" d="M 94.5 24.671875 C 94.5 22.269531 94.429688 19.320312 94.359375 18.429688 C 94.292969 17.261719 93.710938 16.714844 92.613281 16.371094 L 91.925781 16.164062 C 91.71875 16.097656 91.71875 16.027344 91.71875 15.890625 L 91.71875 15.480469 C 91.71875 15.410156 91.789062 15.273438 91.996094 15.203125 C 93.367188 14.792969 96.042969 13.902344 97.140625 13.214844 C 97.550781 13.078125 97.757812 13.011719 97.894531 13.011719 C 98.097656 13.011719 98.238281 13.148438 98.238281 13.628906 C 98.167969 15.480469 98.097656 22.613281 98.097656 24.5 L 98.097656 29.4375 C 98.097656 31.015625 98.097656 34.511719 98.167969 35.542969 C 98.238281 36.160156 98.304688 36.640625 99.058594 36.640625 L 100.363281 36.640625 C 100.707031 36.640625 100.773438 36.707031 100.773438 36.949219 L 100.773438 37.566406 C 100.773438 37.773438 100.707031 37.910156 100.570312 37.910156 C 100.292969 37.910156 98.785156 37.804688 96.382812 37.804688 C 93.777344 37.804688 92.40625 37.910156 92.132812 37.910156 C 91.925781 37.910156 91.859375 37.773438 91.859375 37.566406 L 91.859375 36.914062 C 91.859375 36.707031 91.925781 36.640625 92.335938 36.640625 L 93.640625 36.640625 C 93.984375 36.640625 94.5 36.367188 94.5 35.40625 L 94.5 24.671875 "/>
<path style=" stroke:none;fill-rule:nonzero;fill:#006CA4;fill-opacity:1;" class="awy-blue" d="M 112.777344 30.433594 C 112.777344 26.660156 110.789062 24.464844 109.210938 24.464844 C 108.320312 24.464844 107.632812 24.738281 107.050781 25.390625 C 105.984375 26.589844 105.574219 28.03125 105.574219 30.535156 C 105.574219 32.523438 105.710938 33.828125 106.636719 35.300781 C 107.222656 36.230469 107.976562 36.777344 109.347656 36.777344 C 111.609375 36.777344 112.777344 33.929688 112.777344 30.433594 Z M 114.59375 25.117188 C 116.207031 26.730469 116.960938 28.511719 116.960938 30.535156 C 116.960938 32.457031 116.136719 34.308594 114.835938 35.75 C 113.429688 37.324219 111.371094 38.21875 109.074219 38.21875 C 106.914062 38.21875 105.058594 37.601562 103.519531 35.75 C 102.007812 33.964844 101.664062 32.523438 101.664062 30.433594 C 101.664062 28.785156 102.488281 26.386719 104.546875 24.738281 C 106.226562 23.367188 108.007812 23.09375 109.414062 23.09375 C 111.714844 23.09375 113.429688 23.984375 114.59375 25.117188 "/>
<path style=" stroke:none;fill-rule:nonzero;fill:#006CA4;fill-opacity:1;" class="awy-blue" d="M 123.304688 23.367188 C 123.578125 23.230469 123.785156 23.09375 123.988281 23.09375 C 124.195312 23.09375 124.332031 23.230469 124.402344 23.503906 L 124.675781 25.289062 L 124.882812 25.289062 C 125.292969 24.808594 125.910156 24.257812 126.597656 23.917969 C 127.417969 23.4375 128.3125 23.09375 129.339844 23.09375 C 130.507812 23.09375 131.605469 23.296875 132.359375 23.917969 C 133.867188 25.011719 134.246094 26.042969 134.246094 27.449219 L 134.246094 32.386719 C 134.246094 33.484375 134.210938 34.992188 134.210938 35.679688 C 134.210938 36.433594 134.621094 36.640625 135.035156 36.640625 L 135.992188 36.640625 C 136.300781 36.640625 136.40625 36.707031 136.40625 36.878906 L 136.40625 37.667969 C 136.40625 37.839844 136.335938 37.910156 136.128906 37.910156 C 135.855469 37.910156 134.828125 37.804688 132.425781 37.804688 C 130.367188 37.804688 129.273438 37.910156 129.066406 37.910156 C 128.859375 37.910156 128.792969 37.773438 128.792969 37.496094 L 128.792969 36.914062 C 128.792969 36.707031 128.859375 36.640625 129.203125 36.640625 L 129.890625 36.640625 C 130.164062 36.640625 130.4375 36.433594 130.507812 35.816406 C 130.609375 34.925781 130.644531 33.964844 130.644531 32.59375 L 130.644531 28.648438 C 130.644531 27.277344 130.574219 26.386719 129.75 25.699219 C 129.066406 25.082031 128.449219 25.082031 127.695312 25.082031 C 127.144531 25.082031 126.324219 25.21875 125.5 25.972656 C 124.949219 26.523438 124.777344 27.484375 124.777344 28.410156 L 124.777344 35.472656 C 124.777344 36.230469 124.949219 36.640625 125.429688 36.640625 L 126.046875 36.640625 C 126.324219 36.640625 126.390625 36.707031 126.390625 36.949219 L 126.390625 37.566406 C 126.390625 37.773438 126.324219 37.910156 126.117188 37.910156 C 125.910156 37.910156 124.949219 37.804688 122.894531 37.804688 C 120.765625 37.804688 119.667969 37.910156 119.464844 37.910156 C 119.328125 37.910156 119.257812 37.773438 119.257812 37.566406 L 119.257812 36.914062 C 119.257812 36.707031 119.328125 36.640625 119.601562 36.640625 L 120.285156 36.640625 C 120.699219 36.640625 121.179688 36.503906 121.179688 35.953125 L 121.179688 28.238281 C 121.179688 27.207031 120.558594 26.660156 119.738281 26.25 L 119.464844 26.109375 C 119.257812 26.042969 119.1875 25.90625 119.1875 25.769531 L 119.1875 25.492188 C 119.1875 25.355469 119.328125 25.21875 119.53125 25.152344 L 123.304688 23.367188 "/>
<path style=" stroke:none;fill-rule:nonzero;fill:#006CA4;fill-opacity:1;" class="awy-blue" d="M 147.070312 27.757812 C 147.070312 26.386719 146.660156 25.492188 146.316406 25.046875 C 146.007812 24.671875 145.527344 24.363281 144.703125 24.363281 C 143.984375 24.363281 143.367188 24.601562 142.851562 25.21875 C 142.097656 26.179688 141.890625 27.757812 141.890625 29.09375 C 141.890625 30.191406 142.164062 31.289062 142.75 31.804688 C 143.226562 32.285156 143.742188 32.558594 144.703125 32.558594 C 146.488281 32.558594 147.070312 30.191406 147.070312 27.757812 Z M 142.371094 39.863281 C 141.410156 40.136719 140.28125 41.234375 140.28125 42.605469 C 140.28125 43.566406 140.863281 44.597656 141.515625 44.972656 C 142.578125 45.589844 143.539062 45.796875 145.527344 45.796875 C 147.308594 45.796875 150.257812 44.769531 150.191406 42.746094 C 150.191406 40.753906 148.75 39.519531 145.457031 39.65625 Z M 138.941406 46.070312 C 137.707031 45.351562 137.226562 44.460938 137.226562 43.363281 C 137.226562 41.507812 139.148438 40.207031 140.792969 39.519531 L 140.792969 39.316406 C 139.285156 38.972656 138.460938 37.875 138.460938 36.777344 C 138.460938 34.925781 140.382812 33.757812 141.410156 33.277344 L 141.410156 33.210938 C 140.109375 32.457031 138.460938 31.015625 138.460938 28.101562 C 138.460938 25.835938 140.382812 23.09375 144.804688 23.09375 C 147.753906 23.09375 149.128906 24.671875 149.472656 25.046875 C 150.292969 24.394531 151.492188 23.777344 152.386719 23.777344 C 153.65625 23.777344 154.238281 24.535156 154.167969 25.425781 C 154.167969 26.109375 153.550781 26.796875 152.796875 26.796875 C 152.28125 26.796875 151.9375 26.523438 151.734375 26.316406 C 151.460938 26.109375 151.183594 25.90625 150.910156 25.90625 C 150.703125 25.90625 150.363281 25.90625 150.089844 26.109375 C 150.292969 26.523438 150.5 27.277344 150.5 28.375 C 150.5 29.710938 150.089844 31.085938 149.058594 32.179688 C 147.960938 33.347656 146.316406 33.757812 144.703125 33.757812 C 143.949219 33.757812 143.46875 33.757812 142.75 33.621094 C 142.132812 33.894531 141.273438 34.511719 141.273438 35.335938 C 141.273438 36.707031 142.578125 36.707031 145.59375 36.570312 C 148.203125 36.433594 149.917969 36.640625 151.425781 37.875 C 152.796875 38.902344 153.140625 40.207031 153.140625 41.234375 C 153.140625 42.746094 152.523438 44.046875 151.011719 45.214844 C 149.917969 46.105469 147.515625 47.203125 144.292969 47.132812 C 142.644531 47.132812 140.449219 46.929688 138.941406 46.070312 "/>
<path style=" stroke:none;fill-rule:nonzero;fill:#329A9A;fill-opacity:1;" class="awy-teal" d="M 162.15625 37.601562 L 157.460938 25.5625 C 157.183594 24.875 156.707031 24.671875 156.15625 24.671875 L 155.574219 24.671875 C 155.402344 24.671875 155.332031 24.566406 155.332031 24.429688 L 155.332031 23.675781 C 155.332031 23.46875 155.402344 23.402344 155.605469 23.402344 C 156.019531 23.402344 156.707031 23.503906 159.175781 23.503906 C 160.820312 23.503906 161.644531 23.402344 162.125 23.402344 C 162.328125 23.402344 162.398438 23.46875 162.398438 23.675781 L 162.398438 24.429688 C 162.398438 24.601562 162.328125 24.671875 162.125 24.671875 L 161.78125 24.671875 C 161.4375 24.671875 161.265625 24.945312 161.4375 25.460938 L 163.90625 33.484375 L 164.113281 33.484375 L 166.789062 26.761719 C 166.992188 26.28125 166.824219 25.632812 166.511719 25.21875 C 166.308594 24.945312 165.964844 24.875 165.621094 24.875 L 165.246094 24.875 C 165.074219 24.875 165.003906 24.808594 165.003906 24.636719 L 165.003906 23.882812 C 165.003906 23.675781 165.105469 23.609375 165.3125 23.609375 C 165.554688 23.609375 166.652344 23.710938 168.84375 23.710938 C 170.421875 23.710938 171.179688 23.609375 171.453125 23.609375 C 171.691406 23.609375 171.796875 23.675781 171.796875 23.882812 L 171.796875 24.601562 C 171.796875 24.773438 171.726562 24.875 171.519531 24.875 L 170.972656 24.875 C 170.628906 24.875 170.355469 25.21875 170.492188 25.664062 L 173.03125 33.074219 L 173.167969 33.074219 L 175.429688 26.867188 C 175.980469 25.355469 175.566406 24.671875 174.746094 24.671875 L 174.265625 24.671875 C 174.125 24.671875 174.058594 24.566406 174.058594 24.429688 L 174.058594 23.675781 C 174.058594 23.46875 174.160156 23.402344 174.332031 23.402344 C 174.539062 23.402344 175.566406 23.503906 177.214844 23.503906 C 178.722656 23.503906 179.339844 23.402344 179.683594 23.402344 C 179.886719 23.402344 179.957031 23.503906 179.957031 23.640625 L 179.957031 24.394531 C 179.957031 24.566406 179.886719 24.671875 179.71875 24.671875 L 179.203125 24.671875 C 178.65625 24.671875 178.105469 24.875 177.898438 25.253906 C 177.558594 25.871094 173.167969 36.707031 172.652344 37.875 C 172.480469 38.25 172.207031 38.320312 171.933594 38.320312 C 171.589844 38.320312 171.453125 38.113281 171.246094 37.601562 L 167.816406 28.339844 L 167.609375 28.339844 L 163.632812 37.738281 C 163.425781 38.183594 163.152344 38.320312 162.808594 38.320312 C 162.535156 38.320312 162.328125 38.046875 162.15625 37.601562 "/>
<path style=" stroke:none;fill-rule:nonzero;fill:#329A9A;fill-opacity:1;" class="awy-teal" d="M 183.351562 19.5625 C 182.289062 19.5625 181.257812 18.804688 181.257812 17.640625 C 181.257812 16.644531 182.183594 15.71875 183.558594 15.71875 C 184.929688 15.71875 185.582031 16.714844 185.582031 17.503906 C 185.582031 18.496094 184.894531 19.5625 183.351562 19.5625 Z M 182.183594 28.03125 C 182.183594 27.003906 181.980469 26.316406 180.402344 25.90625 C 180.09375 25.835938 180.058594 25.734375 180.058594 25.597656 L 180.058594 25.21875 C 180.058594 25.082031 180.125 25.011719 180.296875 24.945312 C 180.777344 24.738281 184.175781 23.539062 184.757812 23.296875 C 185.097656 23.160156 185.375 23.09375 185.582031 23.09375 C 185.785156 23.09375 185.886719 23.230469 185.855469 23.503906 C 185.785156 24.054688 185.785156 26.25 185.785156 29.09375 L 185.785156 32.796875 C 185.785156 34.101562 185.785156 35.335938 185.855469 35.75 C 185.921875 36.367188 186.058594 36.640625 186.402344 36.640625 L 187.773438 36.640625 C 188.050781 36.640625 188.117188 36.707031 188.117188 36.878906 L 188.117188 37.566406 C 188.117188 37.773438 188.050781 37.910156 187.84375 37.910156 C 187.570312 37.910156 185.992188 37.804688 183.691406 37.804688 C 181.703125 37.804688 180.402344 37.910156 179.988281 37.910156 C 179.816406 37.910156 179.714844 37.839844 179.714844 37.566406 L 179.714844 36.914062 C 179.714844 36.707031 179.851562 36.640625 180.058594 36.640625 L 181.566406 36.640625 C 181.910156 36.640625 182.082031 36.503906 182.117188 35.953125 C 182.152344 34.925781 182.183594 33.828125 182.183594 32.867188 L 182.183594 28.03125 "/>
<path style=" stroke:none;fill-rule:nonzero;fill:#329A9A;fill-opacity:1;" class="awy-teal" d="M 189.421875 25.390625 C 189.144531 25.390625 188.941406 25.253906 188.941406 24.910156 C 188.941406 24.636719 189.144531 24.429688 189.589844 24.257812 C 190.550781 23.917969 193.535156 21.378906 194.289062 19.9375 C 194.425781 19.664062 194.632812 19.59375 194.839844 19.59375 C 195.113281 19.59375 195.25 19.800781 195.25 20.074219 L 195.113281 23.46875 L 199.640625 23.46875 C 199.847656 23.46875 199.914062 23.609375 199.878906 23.746094 L 199.535156 25.183594 C 199.503906 25.320312 199.398438 25.390625 199.195312 25.390625 L 195.046875 25.390625 C 194.976562 26.832031 194.941406 28.476562 194.941406 29.988281 L 194.941406 33.074219 C 194.941406 35.75 196.074219 36.296875 196.757812 36.296875 C 197.515625 36.296875 198.269531 36.125 198.75 35.886719 C 198.988281 35.78125 199.089844 35.78125 199.160156 35.953125 L 199.367188 36.367188 C 199.433594 36.570312 199.367188 36.707031 199.230469 36.84375 C 198.75 37.1875 197.308594 38.21875 194.90625 38.21875 C 192.851562 38.21875 191.308594 36.570312 191.308594 35.128906 C 191.308594 33.894531 191.410156 31.152344 191.410156 29.847656 L 191.410156 25.390625 L 189.421875 25.390625 "/>
<path style=" stroke:none;fill-rule:nonzero;fill:#329A9A;fill-opacity:1;" class="awy-teal" d="M 212.261719 30.296875 C 212.261719 28.511719 212.261719 26.589844 211.367188 25.699219 C 210.820312 25.152344 210.269531 24.875 209.449219 24.875 C 208.554688 24.875 207.664062 25.355469 206.910156 26.109375 C 206.636719 26.453125 206.292969 27.140625 206.292969 27.792969 L 206.292969 35.199219 C 206.292969 36.296875 206.429688 36.640625 206.910156 36.640625 L 207.734375 36.640625 C 207.9375 36.640625 208.074219 36.707031 208.074219 36.949219 L 208.074219 37.566406 C 208.074219 37.773438 208.007812 37.910156 207.800781 37.910156 C 207.527344 37.910156 206.019531 37.804688 204.234375 37.804688 C 202.109375 37.804688 200.804688 37.910156 200.53125 37.910156 C 200.359375 37.910156 200.257812 37.839844 200.257812 37.632812 L 200.257812 36.878906 C 200.257812 36.707031 200.394531 36.640625 200.566406 36.640625 L 201.421875 36.640625 C 201.972656 36.640625 202.449219 36.503906 202.554688 36.089844 C 202.691406 35.40625 202.726562 33.417969 202.726562 31.839844 L 202.65625 19.59375 C 202.65625 17.675781 202.246094 16.988281 201.078125 16.507812 L 200.460938 16.304688 C 200.257812 16.234375 200.1875 16.164062 200.1875 16.027344 L 200.1875 15.683594 C 200.1875 15.546875 200.257812 15.480469 200.667969 15.273438 C 201.695312 15 204.027344 13.832031 205.128906 13.285156 C 205.539062 13.148438 205.742188 13.011719 206.085938 13.011719 C 206.359375 13.011719 206.429688 13.285156 206.359375 13.832031 C 206.292969 14.449219 206.292969 21.378906 206.292969 23.058594 L 206.292969 25.183594 L 206.5 25.183594 C 207.457031 23.847656 209.3125 23.09375 210.921875 23.09375 C 212.429688 23.09375 213.324219 23.574219 214.351562 24.464844 C 215.929688 25.835938 215.859375 27.550781 215.859375 29.507812 L 215.859375 36.089844 C 215.859375 36.570312 216.480469 36.640625 217.027344 36.640625 L 217.644531 36.640625 C 217.917969 36.640625 217.988281 36.707031 217.988281 36.878906 L 217.988281 37.632812 C 217.988281 37.804688 217.917969 37.910156 217.714844 37.910156 C 217.507812 37.910156 216.410156 37.804688 214.316406 37.804688 C 212.261719 37.804688 211.023438 37.910156 210.683594 37.910156 C 210.476562 37.910156 210.40625 37.839844 210.40625 37.667969 L 210.40625 36.84375 C 210.40625 36.707031 210.476562 36.640625 210.648438 36.640625 L 211.230469 36.640625 C 211.640625 36.640625 212.121094 36.503906 212.191406 35.953125 C 212.261719 35.472656 212.261719 33.691406 212.261719 32.59375 L 212.261719 30.296875 "/>
<path style=" stroke:none;fill-rule:nonzero;fill:#006CA4;fill-opacity:1;" class="awy-blue" d="M 217.710938 45.28125 C 217.710938 44.320312 218.464844 43.566406 219.359375 43.566406 C 219.90625 43.566406 220.453125 43.773438 220.867188 43.980469 C 221.140625 44.117188 221.554688 44.117188 221.757812 43.910156 C 222.171875 43.5 223.953125 39.726562 224.367188 38.421875 C 224.160156 37.394531 220.179688 26.695312 219.941406 26.109375 C 219.5625 25.21875 219.222656 24.671875 218.535156 24.671875 L 217.847656 24.671875 C 217.644531 24.671875 217.574219 24.566406 217.574219 24.394531 L 217.574219 23.640625 C 217.574219 23.503906 217.644531 23.402344 217.847656 23.402344 C 218.125 23.402344 218.945312 23.503906 221.484375 23.503906 C 223.472656 23.503906 224.503906 23.402344 224.914062 23.402344 C 225.121094 23.402344 225.1875 23.46875 225.1875 23.675781 L 225.1875 24.429688 C 225.1875 24.566406 225.121094 24.671875 224.949219 24.671875 L 224.433594 24.671875 C 224.089844 24.671875 223.816406 24.875 223.917969 25.390625 C 224.023438 26.078125 226.078125 33.074219 226.421875 33.828125 L 226.558594 33.828125 C 227.175781 32.523438 229.578125 26.695312 229.75 25.972656 C 229.957031 25.082031 229.644531 24.671875 229.027344 24.671875 L 228.480469 24.671875 C 228.273438 24.671875 228.207031 24.566406 228.207031 24.429688 L 228.207031 23.675781 C 228.207031 23.503906 228.273438 23.402344 228.480469 23.402344 C 228.890625 23.402344 229.578125 23.503906 231.429688 23.503906 C 232.59375 23.503906 233.417969 23.402344 233.726562 23.402344 C 233.898438 23.402344 233.96875 23.503906 233.96875 23.675781 L 233.96875 24.394531 C 233.96875 24.601562 233.898438 24.671875 233.761719 24.671875 L 233.351562 24.671875 C 233.007812 24.671875 232.492188 24.773438 232.117188 25.253906 C 231.429688 26.144531 229.097656 31.289062 226.628906 36.84375 C 224.914062 40.550781 223.472656 43.773438 222.855469 44.871094 C 222.308594 45.761719 221.621094 47.132812 219.769531 47.132812 C 218.535156 47.132812 217.710938 46.378906 217.710938 45.28125 "/>
<path style=" stroke:none;fill-rule:nonzero;fill:#006CA4;fill-opacity:1;" class="awy-blue" d="M 244.90625 30.433594 C 244.90625 26.660156 242.917969 24.464844 241.339844 24.464844 C 240.449219 24.464844 239.761719 24.738281 239.179688 25.390625 C 238.117188 26.589844 237.703125 28.03125 237.703125 30.535156 C 237.703125 32.523438 237.839844 33.828125 238.769531 35.300781 C 239.351562 36.230469 240.105469 36.777344 241.476562 36.777344 C 243.742188 36.777344 244.90625 33.929688 244.90625 30.433594 Z M 246.726562 25.117188 C 248.335938 26.730469 249.089844 28.511719 249.089844 30.535156 C 249.089844 32.457031 248.269531 34.308594 246.964844 35.75 C 245.558594 37.324219 243.5 38.21875 241.203125 38.21875 C 239.042969 38.21875 237.191406 37.601562 235.648438 35.75 C 234.136719 33.964844 233.796875 32.523438 233.796875 30.433594 C 233.796875 28.785156 234.617188 26.386719 236.675781 24.738281 C 238.355469 23.367188 240.140625 23.09375 241.546875 23.09375 C 243.84375 23.09375 245.558594 23.984375 246.726562 25.117188 "/>
<path style=" stroke:none;fill-rule:nonzero;fill:#006CA4;fill-opacity:1;" class="awy-blue" d="M 262.15625 35.886719 L 261.949219 35.886719 C 261.195312 37.121094 259.207031 38.21875 257.421875 38.21875 C 256.1875 38.21875 255.089844 38.21875 253.890625 36.707031 C 252.65625 35.097656 252.621094 33.828125 252.621094 31.90625 C 252.621094 30.261719 252.65625 29.09375 252.65625 28.375 C 252.65625 27.550781 252.65625 26.316406 252.585938 25.90625 C 252.484375 25.046875 252.003906 24.738281 251.386719 24.671875 C 250.839844 24.601562 250.632812 24.601562 250.632812 24.394531 L 250.632812 23.777344 C 250.632812 23.574219 250.699219 23.503906 251.042969 23.503906 L 255.160156 23.503906 C 255.363281 23.503906 255.535156 23.46875 255.671875 23.4375 C 255.8125 23.402344 255.949219 23.367188 256.050781 23.367188 C 256.257812 23.367188 256.394531 23.574219 256.394531 23.777344 C 256.394531 24.121094 256.257812 25.699219 256.257812 28.066406 L 256.257812 30.191406 C 256.257812 31.5625 256.015625 33.894531 256.941406 35.335938 C 257.628906 36.367188 258.382812 36.296875 259.136719 36.296875 C 259.960938 36.296875 260.988281 35.75 261.539062 34.992188 C 261.675781 34.789062 261.917969 34.308594 261.917969 33.894531 L 261.917969 25.835938 C 261.917969 24.945312 261.265625 24.738281 260.441406 24.671875 C 259.824219 24.601562 259.753906 24.535156 259.753906 24.394531 L 259.753906 23.777344 C 259.753906 23.539062 259.859375 23.503906 260.167969 23.503906 L 264.417969 23.503906 C 264.660156 23.503906 264.832031 23.46875 265.003906 23.4375 C 265.171875 23.402344 265.3125 23.367188 265.449219 23.367188 C 265.652344 23.367188 265.722656 23.574219 265.722656 23.710938 C 265.722656 24.054688 265.515625 24.945312 265.515625 28.339844 L 265.515625 30.808594 C 265.515625 32.457031 265.515625 34.101562 265.585938 34.789062 C 265.722656 35.816406 266.066406 35.953125 266.339844 35.953125 C 266.546875 35.953125 267.027344 35.953125 267.4375 35.886719 C 267.710938 35.851562 267.8125 35.886719 267.847656 36.023438 L 267.949219 36.570312 C 267.984375 36.777344 267.917969 36.84375 267.78125 36.878906 L 263.527344 38.082031 C 263.324219 38.148438 263.117188 38.21875 262.839844 38.21875 C 262.566406 38.21875 262.394531 38.082031 262.359375 37.804688 L 262.15625 35.886719 "/>
</g>
</svg>
